Coordinates
version=1
nRows=16
nColumns=40
inDegrees=yes

Units are S.I. units (second, meters, Newtons, ...)
Angles are in degrees.

endheader
time	pelvis_tilt	pelvis_list	pelvis_rotation	pelvis_tx	pelvis_ty	pelvis_tz	hip_flexion_r	hip_adduction_r	hip_rotation_r	knee_angle_r	knee_angle_r_beta	ankle_angle_r	subtalar_angle_r	mtp_angle_r	hip_flexion_l	hip_adduction_l	hip_rotation_l	knee_angle_l	knee_angle_l_beta	ankle_angle_l	subtalar_angle_l	mtp_angle_l	lumbar_extension	lumbar_bending	lumbar_rotation	arm_flex_r	arm_add_r	arm_rot_r	elbow_flex_r	pro_sup_r	wrist_flex_r	wrist_dev_r	arm_flex_l	arm_add_l	arm_rot_l	elbow_flex_l	pro_sup_l	wrist_flex_l	wrist_dev_l
      0.30000000	     -4.99264136	      4.02546159	     -3.83570968	     -0.30772711	      0.96048561	      1.03002184	     24.77874643	    -13.86234134	    -13.51629783	    -52.85487306	     -0.92249156	      1.29896318	    -16.84920718	     15.78904060	      7.61685208	     -7.39859522	      6.79746940	    -13.17209269	     -0.22989639	      4.94620584	      3.64426211	      1.66417583	      0.73656044	     -3.80997400	     -3.60620080	      2.96397007	    -15.47492890	     -5.99355938	     32.23165432	     89.95437384	      0.00000000	      0.00000000	      0.14264004	     10.55568390	      9.44163144	     18.39626195	     89.95437384	      0.00000000	      0.00000000
      0.31000000	     -5.41857571	      3.74900704	     -3.00705053	     -0.29551094	      0.95972779	      1.02957347	     26.11325151	    -13.50901306	    -14.24980987	    -50.80061906	     -0.88663806	      1.68830785	    -16.40512466	     15.66251373	      7.01626006	     -7.19547202	      6.08236287	    -12.84010833	     -0.22410217	      5.24135391	      3.18648071	      1.29176464	      1.01648923	     -3.45776707	     -4.44245596	      2.16077007	    -15.28857901	     -5.56580503	     31.37343001	     89.95437384	      0.00000000	      0.00000000	      1.52649032	     10.60432923	      9.13849796	     19.71031490	     89.95437384	      0.00000000	      0.00000000
      0.32000000	     -5.80400597	      3.44371838	     -2.20422811	     -0.28325936	      0.95873611	      1.02926849	     27.30211274	    -13.13935195	    -14.94879883	    -48.50068115	     -0.84649658	      1.99197195	    -15.87384007	     15.52440236	      6.35108155	     -6.94150587	      5.34368215	    -12.43355839	     -0.21700653	      5.66445754	      2.74078220	      0.94797909	      1.25494612	     -3.08917794	     -5.29034338	      1.38127596	    -15.09182931	     -5.16460839	     30.53526776	     89.95437384	      0.00000000	      0.00000000	      2.83452696	     10.68494405	      8.71418231	     21.17655075	     89.95437384	      0.00000000	      0.00000000
      0.33000000	     -6.17092510	      3.58502839	     -1.66642747	     -0.27087970	      0.95735503	      1.02907241	     28.63226345	    -13.26318556	    -15.36610897	    -46.24296855	     -0.80709206	      2.25458566	    -15.33161824	     15.26285163	      5.84987377	     -7.12281561	      5.48183987	    -12.37056370	     -0.21590707	      6.04289610	      2.58045414	      0.75771736	      1.53141081	     -3.19105382	     -5.76421901	      0.37106247	    -14.92160033	     -4.81372232	     30.00155514	     89.95437384	      0.00000000	      0.00000000	      4.22406635	     10.75604941	      8.52143320	     22.54147211	     89.95437384	      0.00000000	      0.00000000
      0.34000000	     -5.75452423	      2.57402908	     -0.49759956	     -0.25781333	      0.95742964	      1.02918421	     28.19952402	    -12.33948485	    -16.88606660	    -43.00707695	     -0.75061509	      2.34402505	    -14.45111413	     16.42481969	      4.15863991	     -5.96628361	      4.70641511	    -11.70378154	     -0.20426952	      4.78372085	      1.66645166	     -8.03778616	      0.86449227	     -2.14596383	     -7.05995397	     -0.18318096	    -14.68083456	     -4.53307162	     28.95278983	     89.95437384	      0.00000000	      0.00000000	      5.23290287	     11.12802838	      7.05165867	     24.69787383	     89.95437384	      0.00000000	      0.00000000
      0.35000000	     -6.23577421	      2.81433754	      0.01831777	     -0.24531575	      0.95534793	      1.02925280	     29.53672861	    -12.58750513	    -17.25093788	    -40.49451106	     -0.70676255	      2.55802020	    -13.84862406	     16.15529633	      3.69712362	     -6.20463308	      4.85478473	    -11.48589368	     -0.20046666	      5.25672293	      1.45255855	     -8.02966060	      1.30532196	     -2.39725202	     -7.49078157	     -1.22301238	    -14.48374947	     -4.22055111	     28.39324404	     89.95437384	      0.00000000	      0.00000000	      6.50713512	     11.25967519	      6.84207659	     26.17797485	     89.95437384	      0.00000000	      0.00000000
      0.36000000	     -5.78645525	      2.11548841	      0.96839585	     -0.23212641	      0.95492355	      1.02970292	     29.03479062	    -11.90537589	    -18.33486954	    -36.96349095	     -0.64513462	      2.33337751	    -12.39104293	     16.04037567	      1.90864719	     -5.35764740	      3.96239679	    -10.75120332	     -0.18764390	      5.68653239	      0.51917794	     -8.32737313	      0.66388237	     -1.68824884	     -8.60203196	     -1.75276367	    -14.21816639	     -3.91597937	     27.32451903	     89.95437384	      0.00000000	      0.00000000	      7.32658242	     11.82284050	      5.38795669	     28.67391707	     89.95437384	      0.00000000	      0.00000000
      0.37000000	     -5.60703648	      1.95426480	      1.60088298	     -0.21901191	      0.95355813	      1.03043184	     29.12210513	    -11.71067068	    -19.00477215	    -33.76730773	     -0.58935070	      2.35632502	    -11.18537728	     15.63319021	      0.59751562	     -5.01524170	      3.97344563	    -10.30613640	     -0.17987601	      6.02786031	     -0.42227339	     -8.60764093	      0.36734037	     -1.56533016	     -9.28309932	     -2.52701361	    -13.96100834	     -3.64588768	     26.56102217	     89.95437384	      0.00000000	      0.00000000	      8.18787541	     12.31671519	      4.43140630	     31.04658498	     89.95437384	      0.00000000	      0.00000000
      0.38000000	     -5.67893276	      1.87305907	      2.14930251	     -0.20610902	      0.95158592	      1.03131731	     29.53347773	    -11.53878916	    -19.42413273	    -30.60639608	     -0.53418238	      2.42432338	    -10.04929913	     15.27727948	     -0.38167262	     -4.77774710	      4.02492335	     -9.97164617	     -0.17403806	      6.44647527	     -1.11920318	     -8.82360885	      0.34948066	     -1.52761685	     -9.89610409	     -3.21168372	    -13.64758217	     -3.52771350	     25.63758410	     89.95437384	      0.00000000	      0.00000000	      8.98481215	     12.84219019	      3.65129729	     33.35379216	     89.95437384	      0.00000000	      0.00000000
      0.39000000	     -5.24353722	      1.73224964	      2.64599511	     -0.19248898	      0.95016534	      1.03247965	     29.20468276	    -11.32015021	    -20.15150401	    -27.29771948	     -0.47643508	      2.68572323	     -8.54424623	     14.80929195	     -1.97505718	     -4.35505226	      4.55142472	     -9.55096558	     -0.16669580	      6.54198147	     -2.48483082	     -9.46527575	     -0.19861870	     -1.40874131	    -10.40065794	     -3.98842255	    -13.33412869	     -3.68526005	     24.92676681	     89.95437384	      0.00000000	      0.00000000	      9.87320240	     13.40677868	      2.76476737	     35.55445300	     89.95437384	      0.00000000	      0.00000000
      0.40000000	     -5.11672264	      1.63338685	      3.00237180	     -0.17904903	      0.94800095	      1.03400003	     29.26443529	    -11.06340353	    -20.57855595	    -24.07370694	     -0.42016545	      2.87715523	     -6.85742959	     13.33270926	     -3.07657857	     -3.91577099	      5.72418385	     -9.37818938	     -0.16368028	      6.41050182	     -4.51690356	    -11.46849935	     -0.39110064	     -1.36838369	    -10.83300002	     -4.70661093	    -13.05556441	     -3.66494667	     24.14608237	     89.95437384	      0.00000000	      0.00000000	     10.64805630	     14.00379957	      2.01987638	     37.78154071	     89.95437384	      0.00000000	      0.00000000
      0.41000000	     -5.17305805	      1.75624400	      3.27243436	     -0.16592334	      0.94552417	      1.03541909	     29.60141301	    -10.99959982	    -20.72494938	    -20.99086070	     -0.36635963	      3.03165155	     -5.43407176	     13.25970614	     -4.11552215	     -3.90386968	      5.84448468	     -9.01297085	     -0.15730602	      6.76984259	     -4.74467130	    -11.74399046	     -0.39978806	     -1.56197363	    -11.17126623	     -5.29983248	    -12.76075159	     -3.72887897	     23.17450716	     89.95437384	      0.00000000	      0.00000000	     11.32122935	     14.64593884	      1.33631398	     40.12798849	     89.95437384	      0.00000000	      0.00000000
      0.42000000	     -4.79377896	      1.64431299	      3.70300624	     -0.15217780	      0.94359653	      1.03678796	     29.26207228	    -10.87246294	    -21.73812295	    -17.99433222	     -0.31406034	      2.64325898	     -3.12726523	      8.35065625	     -5.49732752	     -3.45013858	      6.74196869	     -8.87861543	     -0.15496107	      6.19533551	     -6.13372677	    -15.21783444	     -0.87123036	     -1.45857474	    -11.59537377	     -5.95988359	    -12.43957723	     -4.26715091	     22.39205032	     89.95437384	      0.00000000	      0.00000000	     12.15684214	     15.19146515	      0.75093164	     42.21527870	     89.95437384	      0.00000000	      0.00000000
      0.43000000	     -4.72228590	      1.68044003	      3.99549617	     -0.13865651	      0.94120408	      1.03828601	     29.34033436	    -10.81015199	    -22.29501013	    -15.28490799	     -0.26677197	      2.81189629	     -0.98796779	      7.99767231	     -6.55818966	     -3.26657669	      6.99924594	     -8.75066877	     -0.15272798	      6.46705821	     -6.59745508	    -15.39529474	     -0.99087998	     -1.53596944	    -11.93008350	     -6.52175542	    -12.14573610	     -4.68095547	     21.44890781	     89.95437384	      0.00000000	      0.00000000	     12.84546730	     15.73537761	      0.28563284	     44.26105787	     89.95437384	      0.00000000	      0.00000000
      0.44000000	     -4.99581582	      1.85395141	      4.17973494	     -0.12544589	      0.93820186	      1.03998562	     29.89846010	    -10.81557675	    -22.29504504	    -12.92582583	     -0.22559822	      2.66378287	      0.64453161	      7.92646779	     -7.12369178	     -3.26712719	      7.03509670	     -8.85870011	     -0.15461348	      6.79566529	     -6.78241608	    -15.51938555	     -0.72352088	     -1.78294541	    -12.19976601	     -7.06970213	    -11.91849892	     -4.75947860	     20.55345059	     89.95437384	      0.00000000	      0.00000000	     13.38545491	     16.28756643	      0.03068296	     46.34752591	     89.95437384	      0.00000000	      0.00000000
      0.45000000	     -4.73886673	      1.62333317	      4.51602905	     -0.11100347	      0.93602002	      1.04173331	     29.72137679	    -10.70215111	    -24.23616232	    -11.04321256	     -0.19274042	      1.40625058	      4.14214078	     -1.04804212	     -8.17373195	     -2.59665157	      7.83669610	     -9.21388546	     -0.16081264	      6.65030386	     -8.14662593	    -16.72419050	     -0.94034956	     -1.54222452	    -12.53391680	     -7.61764729	    -11.67516581	     -5.50780324	     19.60285393	     89.95437384	      0.00000000	      0.00000000	     13.93319833	     16.69731295	     -0.15330889	     48.20336189	     89.95437384	      0.00000000	      0.00000000
